<svg width="243" height="243" viewBox="0 0 243 243" fill="none" xmlns="http://www.w3.org/2000/svg">
<circle cx="121.5" cy="121.5" r="121.5" fill="#FF9800"/>
<path d="M122.353 126.612C144.061 126.612 161.659 109.014 161.659 87.3057C161.659 65.5975 144.062 48 122.353 48C100.645 48 83.0478 65.5978 83.0478 87.3059C83.0745 109.003 100.657 126.585 122.353 126.612ZM122.353 66.1412C134.042 66.1412 143.518 75.6168 143.518 87.3059C143.518 98.9951 134.043 108.471 122.353 108.471C110.664 108.471 101.189 98.9951 101.189 87.3059C101.189 75.6168 110.665 66.1412 122.353 66.1412Z" fill="white"/>
<path d="M160.855 145.237C165.127 142.423 167.701 137.653 167.707 132.538C167.766 128.293 165.371 124.395 161.557 122.53C157.638 120.573 152.948 121.013 149.463 123.667C133.31 135.442 111.403 135.442 95.2509 123.667C91.7604 121.027 87.078 120.587 83.1567 122.53C79.3445 124.394 76.9479 128.288 77.0009 132.532C77.0099 137.646 79.5829 142.415 83.8523 145.23C89.3298 148.873 95.2948 151.723 101.57 153.696C102.635 154.027 103.733 154.333 104.866 154.616L86.5919 172.485C81.7981 177.136 81.6821 184.792 86.3334 189.586C90.9846 194.38 98.641 194.496 103.435 189.845C103.535 189.748 103.633 189.65 103.729 189.549L122.354 170.271L141.016 189.586C145.663 194.383 153.32 194.505 158.117 189.858C162.915 185.21 163.036 177.554 158.389 172.756C158.292 172.656 158.193 172.557 158.092 172.46L139.848 154.609C140.981 154.319 142.084 154.011 143.156 153.684C149.425 151.719 155.384 148.874 160.855 145.237Z" fill="white"/>
</svg>
