<svg width="94" height="38" viewBox="0 0 94 38" fill="none" xmlns="http://www.w3.org/2000/svg">
<path d="M10.795 10.6261C13.594 4.17453 19.9556 0 26.9882 0H75C85.4934 0 94 8.50659 94 19V19C94 29.4934 85.4934 38 75 38H26.9882C19.9556 38 13.594 33.8255 10.795 27.3739L10.0051 25.5534C9.62913 24.6868 9.09051 23.9002 8.41842 23.2363V23.2363C7.77569 22.6014 7.02203 22.0897 6.1948 21.7265L5.50336 21.4229C4.81051 21.1187 4.08928 20.8838 3.3502 20.7216L1.47692 20.3103V20.3103C0.167863 19.9272 0.167863 18.0728 1.47692 17.6897V17.6897L3.35019 17.2784C4.08928 17.1162 4.81051 16.8813 5.50336 16.5771L6.1948 16.2735C7.02203 15.9103 7.77569 15.3986 8.41842 14.7637V14.7637C9.09051 14.0998 9.62913 13.3132 10.0051 12.4466L10.795 10.6261Z" fill="#EAEAEB"/>
</svg>
